<svg id="svg" version="1.1" xmlns="http://www.w3.org/2000/svg" xmlns:xlink="http://www.w3.org/1999/xlink" width="400" height="400" viewBox="0, 0, 400,400"><g id="svgg"><path id="path3" d="M128.000 222.800 L 101.800 223.009 127.876 223.104 C 144.933 223.167,154.038 223.062,154.200 222.800 C 154.336 222.580,154.392 222.443,154.324 222.496 C 154.256 222.548,142.410 222.685,128.000 222.800 M112.800 246.600 C 116.425 250.230,119.481 253.200,119.591 253.200 C 119.701 253.200,116.825 250.230,113.200 246.600 C 109.575 242.970,106.519 240.000,106.409 240.000 C 106.299 240.000,109.175 242.970,112.800 246.600 M275.792 257.700 L 272.200 261.400 275.900 257.808 C 279.336 254.472,279.782 254.000,279.492 254.000 C 279.432 254.000,277.767 255.665,275.792 257.700 M138.600 272.000 C 142.115 275.520,145.081 278.400,145.191 278.400 C 145.301 278.400,142.515 275.520,139.000 272.000 C 135.485 268.480,132.519 265.600,132.409 265.600 C 132.299 265.600,135.085 268.480,138.600 272.000 M248.791 284.300 L 245.400 287.800 248.900 284.409 C 252.151 281.259,252.582 280.800,252.291 280.800 C 252.231 280.800,250.656 282.375,248.791 284.300 M164.200 297.200 C 167.715 300.720,170.681 303.600,170.791 303.600 C 170.901 303.600,168.115 300.720,164.600 297.200 C 161.085 293.680,158.119 290.800,158.009 290.800 C 157.899 290.800,160.685 293.680,164.200 297.200 M221.991 310.700 L 218.600 314.200 222.100 310.809 C 225.351 307.659,225.782 307.200,225.491 307.200 C 225.431 307.200,223.856 308.775,221.991 310.700 M186.200 318.800 C 187.728 320.340,189.069 321.600,189.179 321.600 C 189.289 321.600,188.128 320.340,186.600 318.800 C 185.072 317.260,183.731 316.000,183.621 316.000 C 183.511 316.000,184.672 317.260,186.200 318.800 " stroke="none" fill="#848484" fill-rule="evenodd"></path><path id="path4" d="M295.789 238.100 L 293.000 241.000 295.900 238.211 C 298.594 235.620,298.983 235.200,298.689 235.200 C 298.628 235.200,297.323 236.505,295.789 238.100 M268.991 264.500 L 265.800 267.800 269.100 264.609 C 272.165 261.646,272.582 261.200,272.291 261.200 C 272.230 261.200,270.745 262.685,268.991 264.500 M242.191 290.900 L 239.000 294.200 242.300 291.009 C 245.365 288.046,245.782 287.600,245.491 287.600 C 245.430 287.600,243.945 289.085,242.191 290.900 M215.391 317.300 L 212.200 320.600 215.500 317.409 C 218.565 314.446,218.982 314.000,218.691 314.000 C 218.630 314.000,217.145 315.485,215.391 317.300 " stroke="none" fill="#7c7c7c" fill-rule="evenodd"></path><path id="path0" d="M187.614 82.709 C 129.614 173.843,103.504 216.200,101.812 221.903 L 101.544 222.806 127.821 222.703 L 154.097 222.600 174.249 187.706 L 194.400 152.812 194.400 113.206 C 194.400 81.783,194.297 73.602,193.900 73.609 C 193.625 73.615,190.797 77.710,187.614 82.709 M205.873 85.460 C 205.723 85.610,205.601 96.728,205.602 110.167 L 205.604 134.600 234.356 184.400 L 263.108 234.200 234.554 234.303 L 206.000 234.405 206.000 280.469 L 206.000 326.532 216.700 315.965 C 222.585 310.153,243.375 289.665,262.900 270.436 C 286.595 247.101,298.400 235.207,298.400 234.671 C 298.400 231.237,269.088 183.453,215.420 99.400 C 206.053 84.730,206.277 85.056,205.873 85.460 M101.667 235.140 C 101.773 235.413,179.436 311.958,187.141 319.385 L 189.200 321.370 189.200 278.085 L 189.200 234.800 145.367 234.800 C 121.258 234.800,101.593 234.953,101.667 235.140 " stroke="none" fill="#fbfbfb" fill-rule="evenodd"></path><path id="path1" d="M0.000 200.000 L 0.000 400.000 200.000 400.000 L 400.000 400.000 400.000 200.000 L 400.000 0.000 200.000 0.000 L 0.000 0.000 0.000 200.000 M194.400 113.221 L 194.400 153.241 189.996 160.921 C 187.573 165.144,178.522 180.840,169.881 195.800 L 154.171 223.000 128.009 223.103 C 110.812 223.171,101.708 223.068,101.442 222.802 C 100.149 221.509,122.077 185.253,165.674 116.600 C 190.743 77.123,193.291 73.200,193.855 73.200 C 194.311 73.200,194.400 79.722,194.400 113.221 M218.357 103.400 C 264.557 175.846,292.148 220.483,297.475 231.400 L 299.231 235.000 292.316 241.812 C 288.512 245.559,267.641 266.124,245.935 287.512 C 224.229 308.900,206.364 326.400,206.235 326.400 C 206.106 326.400,206.000 305.916,206.000 280.880 C 206.000 246.009,205.888 235.248,205.520 234.880 C 205.147 234.507,211.458 234.400,233.920 234.400 C 249.804 234.400,262.800 234.342,262.800 234.272 C 262.800 234.201,250.182 212.286,234.760 185.572 C 219.337 158.857,206.377 136.332,205.960 135.516 C 205.178 133.989,204.721 86.212,205.480 85.453 C 206.254 84.679,207.726 86.730,218.357 103.400 M189.200 278.285 L 189.200 321.770 187.300 319.942 C 180.038 312.953,101.373 235.418,101.267 235.144 C 101.193 234.953,120.760 234.800,145.167 234.800 L 189.200 234.800 189.200 278.285 " stroke="none" fill="#040404" fill-rule="evenodd"></path><path id="path2" d="M205.388 110.000 C 205.388 123.530,205.438 129.065,205.500 122.300 C 205.561 115.535,205.561 104.465,205.500 97.700 C 205.438 90.935,205.388 96.470,205.388 110.000 M103.600 237.800 C 105.017 239.230,106.267 240.400,106.377 240.400 C 106.487 240.400,105.417 239.230,104.000 237.800 C 102.583 236.370,101.333 235.200,101.223 235.200 C 101.113 235.200,102.183 236.370,103.600 237.800 M289.392 244.500 L 285.800 248.200 289.500 244.608 C 291.535 242.633,293.200 240.968,293.200 240.908 C 293.200 240.618,292.728 241.064,289.392 244.500 M125.800 259.600 C 129.315 263.120,132.281 266.000,132.391 266.000 C 132.501 266.000,129.715 263.120,126.200 259.600 C 122.685 256.080,119.719 253.200,119.609 253.200 C 119.499 253.200,122.285 256.080,125.800 259.600 M262.391 271.100 L 259.000 274.600 262.500 271.209 C 265.751 268.059,266.182 267.600,265.891 267.600 C 265.831 267.600,264.256 269.175,262.391 271.100 M151.400 284.800 C 154.915 288.320,157.881 291.200,157.991 291.200 C 158.101 291.200,155.315 288.320,151.800 284.800 C 148.285 281.280,145.319 278.400,145.209 278.400 C 145.099 278.400,147.885 281.280,151.400 284.800 M235.591 297.500 L 232.200 301.000 235.700 297.609 C 238.951 294.459,239.382 294.000,239.091 294.000 C 239.031 294.000,237.456 295.575,235.591 297.500 M177.000 310.000 C 180.515 313.520,183.481 316.400,183.591 316.400 C 183.701 316.400,180.915 313.520,177.400 310.000 C 173.885 306.480,170.919 303.600,170.809 303.600 C 170.699 303.600,173.485 306.480,177.000 310.000 M209.200 323.400 C 207.561 325.050,206.310 326.400,206.420 326.400 C 206.530 326.400,207.961 325.050,209.600 323.400 C 211.239 321.750,212.490 320.400,212.380 320.400 C 212.270 320.400,210.839 321.750,209.200 323.400 " stroke="none" fill="#5d5e5e" fill-rule="evenodd"></path><path id="path3" d="M128.000 222.800 L 101.800 223.009 127.876 223.104 C 144.933 223.167,154.038 223.062,154.200 222.800 C 154.336 222.580,154.392 222.443,154.324 222.496 C 154.256 222.548,142.410 222.685,128.000 222.800 M112.800 246.600 C 116.425 250.230,119.481 253.200,119.591 253.200 C 119.701 253.200,116.825 250.230,113.200 246.600 C 109.575 242.970,106.519 240.000,106.409 240.000 C 106.299 240.000,109.175 242.970,112.800 246.600 M275.792 257.700 L 272.200 261.400 275.900 257.808 C 279.336 254.472,279.782 254.000,279.492 254.000 C 279.432 254.000,277.767 255.665,275.792 257.700 M138.600 272.000 C 142.115 275.520,145.081 278.400,145.191 278.400 C 145.301 278.400,142.515 275.520,139.000 272.000 C 135.485 268.480,132.519 265.600,132.409 265.600 C 132.299 265.600,135.085 268.480,138.600 272.000 M248.791 284.300 L 245.400 287.800 248.900 284.409 C 252.151 281.259,252.582 280.800,252.291 280.800 C 252.231 280.800,250.656 282.375,248.791 284.300 M164.200 297.200 C 167.715 300.720,170.681 303.600,170.791 303.600 C 170.901 303.600,168.115 300.720,164.600 297.200 C 161.085 293.680,158.119 290.800,158.009 290.800 C 157.899 290.800,160.685 293.680,164.200 297.200 M221.991 310.700 L 218.600 314.200 222.100 310.809 C 225.351 307.659,225.782 307.200,225.491 307.200 C 225.431 307.200,223.856 308.775,221.991 310.700 M186.200 318.800 C 187.728 320.340,189.069 321.600,189.179 321.600 C 189.289 321.600,188.128 320.340,186.600 318.800 C 185.072 317.260,183.731 316.000,183.621 316.000 C 183.511 316.000,184.672 317.260,186.200 318.800 " stroke="none" fill="#848484" fill-rule="evenodd"></path><path id="path4" d="M295.789 238.100 L 293.000 241.000 295.900 238.211 C 298.594 235.620,298.983 235.200,298.689 235.200 C 298.628 235.200,297.323 236.505,295.789 238.100 M268.991 264.500 L 265.800 267.800 269.100 264.609 C 272.165 261.646,272.582 261.200,272.291 261.200 C 272.230 261.200,270.745 262.685,268.991 264.500 M242.191 290.900 L 239.000 294.200 242.300 291.009 C 245.365 288.046,245.782 287.600,245.491 287.600 C 245.430 287.600,243.945 289.085,242.191 290.900 M215.391 317.300 L 212.200 320.600 215.500 317.409 C 218.565 314.446,218.982 314.000,218.691 314.000 C 218.630 314.000,217.145 315.485,215.391 317.300 " stroke="none" fill="#7c7c7c" fill-rule="evenodd"></path><path id="path0" d="M187.614 82.709 C 129.614 173.843,103.504 216.200,101.812 221.903 L 101.544 222.806 127.821 222.703 L 154.097 222.600 174.249 187.706 L 194.400 152.812 194.400 113.206 C 194.400 81.783,194.297 73.602,193.900 73.609 C 193.625 73.615,190.797 77.710,187.614 82.709 M205.873 85.460 C 205.723 85.610,205.601 96.728,205.602 110.167 L 205.604 134.600 234.356 184.400 L 263.108 234.200 234.554 234.303 L 206.000 234.405 206.000 280.469 L 206.000 326.532 216.700 315.965 C 222.585 310.153,243.375 289.665,262.900 270.436 C 286.595 247.101,298.400 235.207,298.400 234.671 C 298.400 231.237,269.088 183.453,215.420 99.400 C 206.053 84.730,206.277 85.056,205.873 85.460 M101.667 235.140 C 101.773 235.413,179.436 311.958,187.141 319.385 L 189.200 321.370 189.200 278.085 L 189.200 234.800 145.367 234.800 C 121.258 234.800,101.593 234.953,101.667 235.140 " stroke="none" fill="#fbfbfb" fill-rule="evenodd"></path><path id="path1" d="M0.000 200.000 L 0.000 400.000 200.000 400.000 L 400.000 400.000 400.000 200.000 L 400.000 0.000 200.000 0.000 L 0.000 0.000 0.000 200.000 M194.400 113.221 L 194.400 153.241 189.996 160.921 C 187.573 165.144,178.522 180.840,169.881 195.800 L 154.171 223.000 128.009 223.103 C 110.812 223.171,101.708 223.068,101.442 222.802 C 100.149 221.509,122.077 185.253,165.674 116.600 C 190.743 77.123,193.291 73.200,193.855 73.200 C 194.311 73.200,194.400 79.722,194.400 113.221 M218.357 103.400 C 264.557 175.846,292.148 220.483,297.475 231.400 L 299.231 235.000 292.316 241.812 C 288.512 245.559,267.641 266.124,245.935 287.512 C 224.229 308.900,206.364 326.400,206.235 326.400 C 206.106 326.400,206.000 305.916,206.000 280.880 C 206.000 246.009,205.888 235.248,205.520 234.880 C 205.147 234.507,211.458 234.400,233.920 234.400 C 249.804 234.400,262.800 234.342,262.800 234.272 C 262.800 234.201,250.182 212.286,234.760 185.572 C 219.337 158.857,206.377 136.332,205.960 135.516 C 205.178 133.989,204.721 86.212,205.480 85.453 C 206.254 84.679,207.726 86.730,218.357 103.400 M189.200 278.285 L 189.200 321.770 187.300 319.942 C 180.038 312.953,101.373 235.418,101.267 235.144 C 101.193 234.953,120.760 234.800,145.167 234.800 L 189.200 234.800 189.200 278.285 " stroke="none" fill="#040404" fill-rule="evenodd"></path><path id="path2" d="M205.388 110.000 C 205.388 123.530,205.438 129.065,205.500 122.300 C 205.561 115.535,205.561 104.465,205.500 97.700 C 205.438 90.935,205.388 96.470,205.388 110.000 M103.600 237.800 C 105.017 239.230,106.267 240.400,106.377 240.400 C 106.487 240.400,105.417 239.230,104.000 237.800 C 102.583 236.370,101.333 235.200,101.223 235.200 C 101.113 235.200,102.183 236.370,103.600 237.800 M289.392 244.500 L 285.800 248.200 289.500 244.608 C 291.535 242.633,293.200 240.968,293.200 240.908 C 293.200 240.618,292.728 241.064,289.392 244.500 M125.800 259.600 C 129.315 263.120,132.281 266.000,132.391 266.000 C 132.501 266.000,129.715 263.120,126.200 259.600 C 122.685 256.080,119.719 253.200,119.609 253.200 C 119.499 253.200,122.285 256.080,125.800 259.600 M262.391 271.100 L 259.000 274.600 262.500 271.209 C 265.751 268.059,266.182 267.600,265.891 267.600 C 265.831 267.600,264.256 269.175,262.391 271.100 M151.400 284.800 C 154.915 288.320,157.881 291.200,157.991 291.200 C 158.101 291.200,155.315 288.320,151.800 284.800 C 148.285 281.280,145.319 278.400,145.209 278.400 C 145.099 278.400,147.885 281.280,151.400 284.800 M235.591 297.500 L 232.200 301.000 235.700 297.609 C 238.951 294.459,239.382 294.000,239.091 294.000 C 239.031 294.000,237.456 295.575,235.591 297.500 M177.000 310.000 C 180.515 313.520,183.481 316.400,183.591 316.400 C 183.701 316.400,180.915 313.520,177.400 310.000 C 173.885 306.480,170.919 303.600,170.809 303.600 C 170.699 303.600,173.485 306.480,177.000 310.000 M209.200 323.400 C 207.561 325.050,206.310 326.400,206.420 326.400 C 206.530 326.400,207.961 325.050,209.600 323.400 C 211.239 321.750,212.490 320.400,212.380 320.400 C 212.270 320.400,210.839 321.750,209.200 323.400 " stroke="none" fill="#5d5e5e" fill-rule="evenodd"></path><path id="path3" d="M128.000 222.800 L 101.800 223.009 127.876 223.104 C 144.933 223.167,154.038 223.062,154.200 222.800 C 154.336 222.580,154.392 222.443,154.324 222.496 C 154.256 222.548,142.410 222.685,128.000 222.800 M112.800 246.600 C 116.425 250.230,119.481 253.200,119.591 253.200 C 119.701 253.200,116.825 250.230,113.200 246.600 C 109.575 242.970,106.519 240.000,106.409 240.000 C 106.299 240.000,109.175 242.970,112.800 246.600 M275.792 257.700 L 272.200 261.400 275.900 257.808 C 279.336 254.472,279.782 254.000,279.492 254.000 C 279.432 254.000,277.767 255.665,275.792 257.700 M138.600 272.000 C 142.115 275.520,145.081 278.400,145.191 278.400 C 145.301 278.400,142.515 275.520,139.000 272.000 C 135.485 268.480,132.519 265.600,132.409 265.600 C 132.299 265.600,135.085 268.480,138.600 272.000 M248.791 284.300 L 245.400 287.800 248.900 284.409 C 252.151 281.259,252.582 280.800,252.291 280.800 C 252.231 280.800,250.656 282.375,248.791 284.300 M164.200 297.200 C 167.715 300.720,170.681 303.600,170.791 303.600 C 170.901 303.600,168.115 300.720,164.600 297.200 C 161.085 293.680,158.119 290.800,158.009 290.800 C 157.899 290.800,160.685 293.680,164.200 297.200 M221.991 310.700 L 218.600 314.200 222.100 310.809 C 225.351 307.659,225.782 307.200,225.491 307.200 C 225.431 307.200,223.856 308.775,221.991 310.700 M186.200 318.800 C 187.728 320.340,189.069 321.600,189.179 321.600 C 189.289 321.600,188.128 320.340,186.600 318.800 C 185.072 317.260,183.731 316.000,183.621 316.000 C 183.511 316.000,184.672 317.260,186.200 318.800 " stroke="none" fill="#848484" fill-rule="evenodd"></path><path id="path4" d="M295.789 238.100 L 293.000 241.000 295.900 238.211 C 298.594 235.620,298.983 235.200,298.689 235.200 C 298.628 235.200,297.323 236.505,295.789 238.100 M268.991 264.500 L 265.800 267.800 269.100 264.609 C 272.165 261.646,272.582 261.200,272.291 261.200 C 272.230 261.200,270.745 262.685,268.991 264.500 M242.191 290.900 L 239.000 294.200 242.300 291.009 C 245.365 288.046,245.782 287.600,245.491 287.600 C 245.430 287.600,243.945 289.085,242.191 290.900 M215.391 317.300 L 212.200 320.600 215.500 317.409 C 218.565 314.446,218.982 314.000,218.691 314.000 C 218.630 314.000,217.145 315.485,215.391 317.300 " stroke="none" fill="#7c7c7c" fill-rule="evenodd"></path></g></svg>